<?xml version="1.0" encoding="utf-8"?>
<!-- Generator: Adobe Illustrator 21.0.0, SVG Export Plug-In . SVG Version: 6.00 Build 0)  -->
<svg version="1.1" id="图层_1" xmlns="http://www.w3.org/2000/svg" xmlns:xlink="http://www.w3.org/1999/xlink" x="0px" y="0px"
	 viewBox="0 0 512 512" style="enable-background:new 0 0 512 512;" xml:space="preserve">
<style type="text/css">
	.st0{fill:#110E0E;}
</style>
<path class="st0" d="M256,79c-97.9,0-178,80.1-178,178s80.1,178,178,178s178-80.1,178-178S353.9,79,256,79L256,79z M331.6,363.8
	c-26.7-6.7-46.7-15.6-71.2-24.5c-4.5-2.2-8.9-2.2-13.4-2.2c-40-2.2-77.9-33.4-77.9-91.2c0-55.6,33.4-95.7,86.8-95.7
	c55.6,0,84.6,42.3,84.6,91.2c0,40.1-20,69-42.3,80.1c13.3,4.4,28.9,6.7,44.5,11.1L331.6,363.8z"/>
<path class="st0" d="M256,202.5c-22.4,0-37.4,22.4-37.4,50.5c0,28,13.1,50.5,37.4,50.5c22.4,0,37.4-22.4,37.4-50.5
	C291.5,226.8,278.4,202.5,256,202.5L256,202.5z"/>
</svg>
