<?xml version="1.0" encoding="utf-8"?>
<!-- Generator: Adobe Illustrator 21.0.0, SVG Export Plug-In . SVG Version: 6.00 Build 0)  -->
<svg version="1.1" id="图层_1" xmlns="http://www.w3.org/2000/svg" xmlns:xlink="http://www.w3.org/1999/xlink" x="0px" y="0px"
	 viewBox="0 0 512 512" style="enable-background:new 0 0 512 512;" xml:space="preserve">
<style type="text/css">
	.st0{fill:#141212;}
</style>
<path class="st0" d="M269.2,239.2v-73c-3.7-0.4-7.3-0.8-10.4-1.3h-0.5c0,0-0.1,0.1-0.2,0.1c-4,0.5-8.8,1.1-14.4,1.7v72.4H94.5V181
	c0-9.1,7.3-16.5,16.4-16.5h68c-18.3-3.9-32-11.7-32.5-26.3c-0.5-17.1,18.6-44.8,46.7-38.5c28.8,6.5,49.1,29.1,64.5,48.4
	c15.6-19.7,37.7-45,67.9-49c25.2-3.2,46.1,22.2,43.4,38.9c-2.3,14.7-16.2,22.6-34.1,26.5H402c9.1,0,16.4,7.3,16.4,16.5v58.1
	L269.2,239.2 M196.2,115c-13.9-5.6-22.1,0.4-28,10.1c-3.2,5.5-6.6,12.9-1.5,18.3c13.4,13.9,50.2,12.9,74.9,10.3
	C230,139.1,215.6,122.8,196.2,115 M348.8,143.4c9.6-12.4-9.2-38.1-29.4-28.6c-19.3,9.1-33.3,24-45.3,38.7
	c10.4,0.9,20.8,1.1,31.2,0.6C318,153.6,341.3,152.7,348.8,143.4 M244.8,413.1H123.1c-8.2,0-14.8-6.7-14.8-15V250.9h136.5
	L244.8,413.1 M404.7,398.1c0,8.4-6.7,15-14.8,15H268.2V250.9h136.5V398.1"/>
</svg>
