<?xml version="1.0" encoding="utf-8"?>
<!-- Generator: Adobe Illustrator 21.0.0, SVG Export Plug-In . SVG Version: 6.00 Build 0)  -->
<svg version="1.1" id="图层_1" xmlns="http://www.w3.org/2000/svg" xmlns:xlink="http://www.w3.org/1999/xlink" x="0px" y="0px"
	 viewBox="0 0 512 512" style="enable-background:new 0 0 512 512;" xml:space="preserve">
<style type="text/css">
	.st0{fill:#110F0F;}
</style>
<path class="st0" d="M413.2,193.9c-17.3,0-31.3,13.9-31.3,31c0,6.4,1.9,12.3,5.2,17.2l-76.8,43.1l-41.7-116.6
	c12.1-4.3,20.8-15.7,20.8-29.2c0-17.1-14-31-31.3-31s-31.3,13.9-31.3,31c0,13.3,8.4,24.6,20.2,29l-41.8,116.8l-77.5-43.5
	c2.7-4.6,4.2-9.9,4.2-15.6c0-17.1-14-31-31.3-31s-31.3,13.9-31.3,31s14,31,31.3,31c1.9,0,3.7-0.2,5.5-0.5l24.5,149.5h254l24.7-150.4
	c1.2,0.1,2.4,0.2,3.7,0.2c17.3,0,31.3-13.9,31.3-31S430.5,193.9,413.2,193.9L413.2,193.9z"/>
</svg>
