<?xml version="1.0" encoding="utf-8"?>
<!-- Generator: Adobe Illustrator 21.0.0, SVG Export Plug-In . SVG Version: 6.00 Build 0)  -->
<svg version="1.1" id="图层_1" xmlns="http://www.w3.org/2000/svg" xmlns:xlink="http://www.w3.org/1999/xlink" x="0px" y="0px"
	 viewBox="0 0 512 512" style="enable-background:new 0 0 512 512;" xml:space="preserve">
<style type="text/css">
	.st0{fill:#070606;}
</style>
<path class="st0" d="M409.1,371.1h-26.2v-175c0.1-11.7-9.2-20.1-19.5-20.1c-2.4,0-4.7,0.5-7.2,1.4L300.8,200
	c-3.5,1.4-5.8,4.9-5.8,8.8l0.8,162.4h-15.5L280,194.7c-0.5-8.3-5.6-15.7-13.3-19.2l-1.7-0.8l-14.9-6.9l-9.2-4.1l-79.3-36.3
	c-3.1-1.4-6.1-2.1-9.2-2.1c-11.9,0-22.5,9.7-22.5,23v222.9h-26.2c-4.8,0-8.7,4-8.7,8.9s3.9,8.9,8.7,8.9h305.5c4.8,0,8.7-4,8.7-8.9
	C417.8,375.1,413.9,371.1,409.1,371.1z M316.2,255.3h25v25.4h-25V255.3z M313.1,300h31.2v50.7h-31.2V300z M193.9,186.8h28.8V216
	l-28.8-0.1V186.8z M193.7,241.3h28.8v29.2h-28.8V241.3z M190.2,292.5h35.9v58.3h-35.9L190.2,292.5L190.2,292.5z"/>
</svg>
