<?xml version="1.0" encoding="utf-8"?>
<!-- Generator: Adobe Illustrator 21.0.0, SVG Export Plug-In . SVG Version: 6.00 Build 0)  -->
<svg version="1.1" id="图层_1" xmlns="http://www.w3.org/2000/svg" xmlns:xlink="http://www.w3.org/1999/xlink" x="0px" y="0px"
	 viewBox="0 0 512 512" style="enable-background:new 0 0 512 512;" xml:space="preserve">
<style type="text/css">
	.st0{fill:#0C0B0B;}
</style>
<path class="st0" d="M255.4,127.9c-53.5,0-96.8,42.5-96.8,94.8c0,52.4,43.3,94.8,96.8,94.8s96.8-42.5,96.8-94.8
	C352.2,170.3,308.9,127.9,255.4,127.9L255.4,127.9z M143.6,259.1v-87.6c-1.2,0-2.4,0-3.6,0.1c19.8-43.1,64-73.1,115.4-73.1
	s95.6,30,115.4,73.1c-1.2-0.1-2.4-0.1-3.6-0.1v87.6c24.7,0,44.7-19.6,44.7-43.8c0-16.4-9.2-30.7-22.9-38.2
	C369.8,122.9,317.3,84,255.4,84S141,122.9,121.8,177.1c-13.7,7.5-22.9,21.8-22.9,38.2C98.9,239.5,118.9,259.1,143.6,259.1
	L143.6,259.1z M352,309.3c-25.3,23.1-59.3,37.3-96.6,37.3s-71.2-14.1-96.5-37.2c-45.2,22.8-75,63.4-75,118.6h344
	C428,372.7,397.7,332.1,352,309.3L352,309.3z"/>
</svg>
