<?xml version="1.0" encoding="utf-8"?>
<!-- Generator: Adobe Illustrator 21.0.0, SVG Export Plug-In . SVG Version: 6.00 Build 0)  -->
<svg version="1.1" id="图层_1" xmlns="http://www.w3.org/2000/svg" xmlns:xlink="http://www.w3.org/1999/xlink" x="0px" y="0px"
	 viewBox="0 0 512 512" style="enable-background:new 0 0 512 512;" xml:space="preserve">
<style type="text/css">
	.st0{fill:#331515;}
</style>
<path class="st0" d="M217.7,420.3c-20-9.9-33.3-29.7-34.8-51.9c-1.2-41.6,30.4-62,49.1-89.8c26.8-40.1,19.5-64.9,19.5-64.9
	s22.3,11.6,35.3,54.2c3.8,12,5,24.6,3.7,37.1c-1.9,19.9-7.4,39.2-16.2,57.1c-8.9,17.9,24.7-4.8,31.6-46c12.6,11,20.8,26.2,23.1,42.7
	c1.1,28.9-16.6,55.3-43.9,65.3c40.9-9.3,75.4-36.6,93.7-74.2c15-34.1,11-64.5,8.5-90.9c-2-21.5,1.7-43.1,10.5-62.7
	c-19,6.6-35.1,19.4-45.9,36.3c-6,10.2-10.3,21.4-12.6,33c0.2-17-3.4-33.9-10.6-49.3c-12.5-31.1-24-42.3-30.9-65.3
	c-4.4-20.9-0.5-42.8,11-60.9c11.4-18.1-78.7,13.4-114.4,76.1c-31.6,55.7-18.7,89.1-18.7,89.1c-8.5-7.7-15.4-17.1-20.3-27.5
	c-4.2-9.6-6-20-5.4-30.4s-55.9,56.4-28.7,127.3C136.5,369.9,172.2,405.4,217.7,420.3"/>
</svg>
