<?xml version="1.0" encoding="utf-8"?>
<!-- Generator: Adobe Illustrator 21.0.0, SVG Export Plug-In . SVG Version: 6.00 Build 0)  -->
<svg version="1.1" id="图层_1" xmlns="http://www.w3.org/2000/svg" xmlns:xlink="http://www.w3.org/1999/xlink" x="0px" y="0px"
	 viewBox="0 0 512 512" style="enable-background:new 0 0 512 512;" xml:space="preserve">
<style type="text/css">
	.st0{fill:#4C1A1A;}
</style>
<g>
	<path class="st0" d="M373.2,243.2c-8.8,0-17.6,2.3-25.3,7.9l-1.1-14.6c0-6.8-4.4-12.4-11-12.4h-50.6h-59.4h-54.5
		c0.9-0.6,1.9-1.3,2.8-2.3c3.3-3.4,2.2-9-1.1-12.4l-5.5-5.6c-2.2-3.4-4.4-5.6-6.6-9c-1.1-3.4-3.3-7.9-3.3-12.4
		c0-5.6,4.4-10.1,8.8-14.6c7.7-5.6,14.3-13.5,16.5-23.7v-6.8c-1.1-10.1-6.6-20.3-13.2-27c-2.2-3.4-4.4-5.6-7.7-7.9
		c-1.1-1.1-3.3-2.3-4.4-3.4c-4.4-2.3-9.9-1.1-12.1,3.4c-2.2,4.5-1.1,10.1,2.2,12.4c1.1,0,1.1,0,2.2,1.1c1.1,1.1,2.2,1.1,3.3,2.3
		c2.2,2.3,5.5,5.6,6.6,10.1c2.2,2.3,4.4,6.8,4.4,10.1c0,6.8-5.5,12.4-9.9,15.8c-8.8,6.8-15.4,15.8-15.4,28.2
		c0,10.1,5.5,20.3,11,28.2c2.2,3.4,5.5,6.8,7.7,9c2.2,1.1,3.3,2.3,4.4,3.4c0.4,0.4,0.9,0.8,1.5,1.1h-62c-5.5,0-11,5.6-11,12.4v45.1
		c0,28.2,8.8,55.2,25.3,77.7c25.3,33.8,62.7,52.9,103.4,52.9s79.2-19.1,103.4-52.9c7.7-10.1,13.2-21.4,17.6-33.8
		c8.8,9,20.9,14.6,33,14.6c26.4,0,47.3-21.4,47.3-48.4C420.5,264.6,398.5,243.2,373.2,243.2z M373.2,316.4
		c-13.2,0-24.2-11.3-24.2-24.8s11-24.8,24.2-24.8s24.2,11.3,24.2,24.8C397.4,305.1,386.4,316.4,373.2,316.4z"/>
	<path class="st0" d="M231.3,208.3l-5.5-5.6c-2.2-3.4-4.4-5.6-6.6-9c-1.1-3.4-3.3-7.9-3.3-12.4c0-5.6,4.4-10.1,8.8-13.5
		c8.8-5.6,15.4-13.5,18.7-23.7v-6.8c-1.1-10.1-6.6-20.3-13.2-27c-3.3-3.4-5.5-5.6-8.8-7.9c-1.1-1.1-3.3-2.3-4.4-3.4
		c-4.4-2.3-9.9-1.1-12.1,3.4c-3.3,4.5-2.2,10.1,2.2,12.4c1.1,0,1.1,0,1.1,1.1c1.1,0,2.2,1.1,3.3,2.3c3.3,2.3,6.6,5.6,6.6,9
		c2.2,2.3,4.4,6.8,4.4,10.1c0,6.8-5.5,12.4-9.9,15.8c-8.8,6.8-15.4,15.8-15.4,28.2c0,10.1,5.5,20.3,11,28.2c2.2,3.4,5.5,6.8,7.7,9
		c2.2,1.1,3.3,2.3,4.4,3.4c1.1,1.1,3.3,2.3,5.5,2.3s4.4-1.1,6.6-3.4C235.7,217.3,234.6,211.6,231.3,208.3z"/>
	<path class="st0" d="M290.7,208.3l-5.5-5.6c-2.2-3.4-4.4-5.6-6.6-9c-1.1-3.4-3.3-7.9-3.3-12.4c0-5.6,4.4-10.1,8.8-13.5
		c7.7-5.6,15.4-13.5,17.6-23.7v-6.8c-1.1-10.1-6.6-20.3-13.2-27c-3.3-3.4-5.5-5.6-8.8-7.9c-1.1-1.1-3.3-2.3-4.4-3.4
		c-3.3-2.3-8.8-1.1-11,3.4c-3.3,4.5-2.2,10.1,2.2,12.4c4.4,3.4,9.9,7.9,11,12.4c2.2,2.3,4.4,6.8,4.4,10.1c0,6.8-5.5,12.4-9.9,15.8
		c-8.8,6.8-15.4,15.8-15.4,28.2c0,10.1,5.5,20.3,11,28.2c2.2,3.4,5.5,6.8,7.7,9c2.2,1.1,3.3,2.3,4.4,3.4c1.1,1.1,3.3,2.3,5.5,2.3
		s4.4-1.1,6.6-3.4C295.1,217.3,294,211.6,290.7,208.3z"/>
</g>
</svg>
