<?xml version="1.0" encoding="utf-8"?>
<!-- Generator: Adobe Illustrator 21.0.0, SVG Export Plug-In . SVG Version: 6.00 Build 0)  -->
<svg version="1.1" id="图层_1" xmlns="http://www.w3.org/2000/svg" xmlns:xlink="http://www.w3.org/1999/xlink" x="0px" y="0px"
	 viewBox="0 0 512 512" style="enable-background:new 0 0 512 512;" xml:space="preserve">
<style type="text/css">
	.st0{fill:#110F0F;}
</style>
<path class="st0" d="M256.5,92.5c-90.6,0-164,73.4-164,164s73.4,164,164,164s164-73.4,164-164S347.1,92.5,256.5,92.5L256.5,92.5z
	 M340.2,306.6l-120.6,0.1l19.5,32.8L211.6,355c0,0-38.8-58.7-38.8-65c0-0.6,0.3-1.1,0.3-1.7c0-0.5,0.1-1,0.3-1.5
	c1.5-7.7,8-13.6,16.1-13.6h4.2c1.3-0.2,2.4-0.1,3.5,0l143.1-0.1v33.5L340.2,306.6L340.2,306.6z M339.9,224.7c0,0.5-0.1,1-0.3,1.5
	c-1.5,7.7-8,13.6-16.1,13.6h-4.2c-1.3,0.2-2.4,0.1-3.5,0l-143.1-0.9v-33.5l120.6,0.9l-19.5-32.8l27.5-15.5c0,0,38.8,58.7,38.8,65
	C340.2,223.6,340,224.1,339.9,224.7L339.9,224.7z"/>
</svg>
