<?xml version="1.0" encoding="utf-8"?>
<!-- Generator: Adobe Illustrator 21.0.0, SVG Export Plug-In . SVG Version: 6.00 Build 0)  -->
<svg version="1.1" id="图层_1" xmlns="http://www.w3.org/2000/svg" xmlns:xlink="http://www.w3.org/1999/xlink" x="0px" y="0px"
	 viewBox="0 0 512 512" style="enable-background:new 0 0 512 512;" xml:space="preserve">
<style type="text/css">
	.st0{fill:#0C0A0A;}
</style>
<path class="st0" d="M391.2,422H120.8c-11.5,0-20.8-9.2-20.8-20.6c0-54.6,25.3-102.8,64-132.8c25.8,18.7,57.5,29.9,91.9,29.9
	c34.4,0,66.1-11.2,91.9-29.9c38.7,30,64,78.2,64,132.8C411.9,412.8,402.6,422,391.2,422L391.2,422z M256,276.9
	c-52.2,0-94.4-41.9-94.4-93.4c0-51.6,42.2-93.5,94.4-93.5c52.2,0,94.4,41.9,94.4,93.4C350.4,235,308.2,276.9,256,276.9L256,276.9z
	 M256,257.4"/>
</svg>
